<?xml version="1.0" encoding="utf-8"?><svg xmlns="http://www.w3.org/2000/svg" xmlns:xlink="http://www.w3.org/1999/xlink"><symbol fill="none" viewBox="0 0 30 30" id="Ozon" xmlns="http://www.w3.org/2000/svg">
    <rect width="30" height="30" rx="15" fill="currentColor"/>
    <path d="M12.84 16.526h-2.265l2.892-4.173a.224.224 0 0 0-.04-.294.18.18 0 0 0-.114-.042H9.13c-.368 0-.668.328-.668.729 0 .4.301.729.668.729h1.88L8.108 17.65a.22.22 0 0 0 .035.294c.035.03.076.046.119.042h4.573c.368-.02.652-.363.634-.767-.018-.375-.29-.672-.634-.692v-.003h.004Zm14.613-4.509c-.367 0-.668.328-.668.729v2.447l-3.611-3.127a.179.179 0 0 0-.27.03.22.22 0 0 0-.042.134v5.028c0 .401.301.729.668.729.367 0 .668-.325.668-.729v-2.447l3.612 3.13a.183.183 0 0 0 .273-.034.218.218 0 0 0 .042-.13v-5.031c-.003-.404-.3-.729-.672-.729Zm-9.556 4.646c-1.53 0-2.67-.879-2.67-1.665s1.144-1.665 2.67-1.665c1.53 0 2.67.879 2.67 1.665s-1.138 1.665-2.67 1.665Zm0-4.788c-2.212 0-4.007 1.397-4.007 3.123 0 1.726 1.795 3.123 4.007 3.123 2.211 0 4.007-1.397 4.007-3.123 0-1.726-1.796-3.123-4.007-3.123ZM4.74 16.667c-.843 0-1.53-.744-1.53-1.665 0-.92.683-1.669 1.527-1.669.844 0 1.53.744 1.53 1.665v.004c0 .917-.683 1.66-1.527 1.665Zm0-4.792c-1.581 0-2.862 1.397-2.866 3.123 0 1.725 1.28 3.123 2.863 3.127 1.581 0 2.863-1.397 2.866-3.123v-.004c-.003-1.725-1.284-3.123-2.863-3.123Z" fill="#0D0E0E"/>
</symbol><symbol fill="none" viewBox="0 0 30 30" id="Wb" xmlns="http://www.w3.org/2000/svg">
    <rect width="30" height="30" rx="15" fill="currentColor"/>
    <path d="M13.662 17.916c.16-.607.316-1.214.476-1.821.23-.87.463-1.74.692-2.612.187-.706.37-1.412.546-2.121.087-.341.08-.345.433-.345H17c-.053.205-.1.386-.15.57-.336 1.21-.672 2.42-1.005 3.632-.336 1.217-.665 2.434-1.001 3.652-.09.334-.19.661-.277.996-.026.102-.076.133-.173.13-.449-.004-.898-.014-1.347.003-.167.006-.22-.065-.257-.209a169.74 169.74 0 0 0-.522-1.865l-.759-2.68c-.156-.55-.31-1.102-.466-1.65-.006-.021-.02-.038-.043-.08-.093.321-.183.615-.27.915l-1.228 4.31c-.106.372-.21.74-.309 1.112-.027.106-.077.143-.186.14-.466-.007-.932-.004-1.398 0-.097 0-.143-.024-.173-.13-.35-1.289-.706-2.575-1.062-3.864l-.732-2.632-.589-2.128c-.02-.068-.03-.14-.053-.235h.769c.2 0 .399.006.599-.004.12-.003.173.034.203.16.26 1.017.529 2.026.795 3.039l.938 3.563c.014.048.03.093.06.178.06-.201.107-.358.153-.518.373-1.307.743-2.613 1.112-3.919.223-.784.443-1.568.659-2.353.03-.112.086-.15.2-.15.342.007.688.007 1.031 0 .12-.003.176.038.21.157.23.842.462 1.681.699 2.52.242.86.489 1.719.735 2.578l.466 1.647c.003.017.02.017.033.014ZM22.892 15.335c.134.112.281.218.413.344.534.523.73 1.191.69 1.96-.072 1.361-1.19 2.344-2.356 2.354-1.162.01-2.32 0-3.483.007-.165 0-.156-.096-.153-.215v-5.85c0-.91.003-1.819-.003-2.73 0-.14.022-.201.169-.201 1.087.007 2.177-.02 3.264.014 1.484.047 2.671 1.607 2.118 3.33-.115.362-.33.652-.596.901-.02.018-.038.038-.057.058-.003.007-.003.014-.006.028Zm-2.315 3.259h.313c.29-.004.587.027.871-.024.534-.099.925-.7.878-1.293-.053-.676-.487-1.16-1.072-1.171-.687-.01-1.374 0-2.061-.007-.119 0-.15.048-.147.17.003.718.006 1.434 0 2.15 0 .134.031.178.156.175.353-.004.71 0 1.062 0Zm-1.2-6.17c-.006.034-.012.054-.012.075 0 .71 0 1.423-.003 2.133 0 .112.05.13.134.13.603-.004 1.21.01 1.812-.01.175-.008.366-.072.516-.171.44-.29.593-.823.44-1.403-.1-.376-.493-.789-1.012-.771-.572.017-1.146.003-1.718.003-.053.003-.103.01-.156.014Z" fill="#0D0E0E"/>
</symbol><symbol fill="none" viewBox="0 0 30 32" id="Yandex" xmlns="http://www.w3.org/2000/svg">
    <g clip-path="url(#ja)">
        <path d="M15.1 31c8.3 0 15-6.7 15-15s-6.7-15-15-15S.1 7.7.1 16c-.1 8.3 6.7 15 15 15Z" fill="currentColor"/>
        <mask id="jb" style="mask-type:luminance" maskUnits="userSpaceOnUse" x="0" y="1" width="31" height="30">
            <path d="M15.1 31c8.3 0 15-6.7 15-15s-6.7-15-15-15S.1 7.7.1 16c-.1 8.3 6.7 15 15 15Z" fill="#fff"/>
        </mask>
        <g mask="url(#jb)">
            <path d="M7.7 9.2-5.5 26.5l3.5 4 9.8-13-1 7.1 5.5 1.9L19 15.8c-.3 2-.8 6.6 3.6 8 6.9 2.1 12.9-10.3 15.7-16.6l-4-2.1c-3.1 6.5-7.9 13.7-9.8 13.2-1.9-.5-.2-6.6.9-10.5v-.1l-6.1-2.1L12 17.5l1-6.5-5.3-1.8Z" fill="#0D0E0E"/>
        </g>
    </g>
    <defs>
        <clipPath id="ja">
            <path fill="#fff" d="M0 0h30v32H0z"/>
        </clipPath>
    </defs>
</symbol><symbol fill="none" viewBox="0 0 20 16" id="arrow-left" xmlns="http://www.w3.org/2000/svg">
    <path d="M8.35 1 1 8m0 0 7.35 7M1 8h18" stroke="currentColor" stroke-width="1.4" stroke-linecap="round" stroke-linejoin="round"/>
</symbol><symbol fill="none" viewBox="0 0 20 20" id="arrow-right" xmlns="http://www.w3.org/2000/svg">
    <g clip-path="url(#ba)">
        <path d="M11.65 17 19 10m0 0-7.35-7M19 10H1" stroke="currentColor" stroke-width="1.4" stroke-linecap="round" stroke-linejoin="round"/>
    </g>
    <defs>
        <clipPath id="ba">
            <path fill="#fff" transform="rotate(180 10 10)" d="M0 0h20v20H0z"/>
        </clipPath>
    </defs>
</symbol><symbol fill="none" viewBox="0 0 20 20" id="mail" xmlns="http://www.w3.org/2000/svg">
    <path d="m17.917 15-5.536-5m-4.762 0-5.536 5m-.416-9.167 6.804 4.763c.55.386.826.579 1.126.653.265.066.541.066.806 0 .3-.074.575-.267 1.126-.653l6.804-4.763M5.667 16.667h8.666c1.4 0 2.1 0 2.635-.273a2.5 2.5 0 0 0 1.093-1.092c.272-.535.272-1.235.272-2.635V7.333c0-1.4 0-2.1-.272-2.635a2.5 2.5 0 0 0-1.093-1.092c-.534-.273-1.235-.273-2.635-.273H5.667c-1.4 0-2.1 0-2.635.273a2.5 2.5 0 0 0-1.093 1.092c-.272.535-.272 1.235-.272 2.635v5.334c0 1.4 0 2.1.272 2.635a2.5 2.5 0 0 0 1.093 1.092c.534.273 1.235.273 2.635.273Z" stroke="currentColor" stroke-width="1.5" stroke-linecap="round" stroke-linejoin="round"/>
</symbol><symbol fill="none" viewBox="0 0 20 20" id="phone" xmlns="http://www.w3.org/2000/svg">
    <path d="M6.984 7.378c.58 1.208 1.37 2.34 2.372 3.341a12.169 12.169 0 0 0 3.341 2.372c.104.05.156.075.222.094.233.068.52.02.718-.122.056-.04.103-.088.199-.183.29-.291.437-.437.583-.532a1.667 1.667 0 0 1 1.817 0c.146.095.292.24.584.532l.162.162c.443.443.664.665.785.902.239.473.239 1.032 0 1.505-.12.238-.342.46-.785.902l-.131.131c-.442.442-.662.662-.962.831-.333.187-.85.322-1.232.32-.344 0-.58-.067-1.05-.201a15.865 15.865 0 0 1-6.903-4.061 15.866 15.866 0 0 1-4.061-6.903c-.134-.47-.2-.706-.202-1.05a2.814 2.814 0 0 1 .32-1.232c.17-.3.39-.52.831-.962l.132-.131c.443-.443.664-.665.902-.785a1.667 1.667 0 0 1 1.504 0c.238.12.46.342.902.785l.163.162c.291.292.437.437.532.584.36.552.36 1.264 0 1.817-.095.146-.24.292-.532.583a1.682 1.682 0 0 0-.183.199.872.872 0 0 0-.122.718c.019.066.044.118.094.222Z" stroke="currentColor" stroke-width="1.5" stroke-linecap="round" stroke-linejoin="round"/>
</symbol><symbol fill="none" viewBox="0 0 22 22" id="pin" xmlns="http://www.w3.org/2000/svg">
    <path d="M11 11.875a2.625 2.625 0 1 0 0-5.25 2.625 2.625 0 0 0 0 5.25Z" stroke="currentColor" stroke-width="1.5" stroke-linecap="round" stroke-linejoin="round"/>
    <path d="M11 19.75c3.5-3.5 7-6.634 7-10.5a7 7 0 1 0-14 0c0 3.866 3.5 7 7 10.5Z" stroke="currentColor" stroke-width="1.5" stroke-linecap="round" stroke-linejoin="round"/>
</symbol><symbol fill="none" viewBox="0 0 27 32" id="play" xmlns="http://www.w3.org/2000/svg">
    <path d="M25.5 13.402c2 1.155 2 4.041 0 5.196l-21 12.124c-2 1.155-4.5-.288-4.5-2.598V3.876C0 1.566 2.5.123 4.5 1.278l21 12.124Z" fill="currentColor"/>
</symbol><symbol fill="none" viewBox="0 0 20 22" id="user" xmlns="http://www.w3.org/2000/svg">
    <path d="M9.988 22H.679c-.468 0-.624-.15-.632-.62-.02-.949-.05-1.898-.047-2.85.004-.793.114-1.577.426-2.316.468-1.113 1.33-1.81 2.459-2.227.772-.287 1.584-.379 2.392-.501.539-.08 1.077-.153 1.616-.237.152-.023.23-.115.25-.287.05-.467-.059-.83-.453-1.16-.496-.413-.78-.995-.952-1.615-.036-.122-.086-.18-.223-.214-.804-.191-1.409-.639-1.643-1.443-.215-.727.008-1.362.566-1.87.14-.127.152-.223.101-.387-.234-.792-.331-1.6-.12-2.415.23-.903.807-1.534 1.635-1.967.07-.038.156-.084.19-.149C6.69.97 7.397.53 8.236.276c1.218-.363 2.444-.375 3.661.004.375.119.722.291 1.007.563.34.329.52.712.422 1.19-.028.141.031.233.148.302.375.23.75.456 1.12.693.648.417.976 1.022.988 1.768.007.547-.051 1.09-.07 1.637a.327.327 0 0 0 .081.23c1.015 1.014.71 2.575-.624 3.146-.172.072-.36.107-.535.176-.062.023-.136.08-.152.137a4.008 4.008 0 0 1-1.343 2.04.267.267 0 0 0-.082.176c-.011.199-.004.394-.004.593 0 .21.079.29.293.321.937.138 1.878.264 2.81.425.906.153 1.757.46 2.482 1.037.84.67 1.261 1.565 1.44 2.59.165.946.126 1.895.098 2.844-.011.428-.023.853-.03 1.282-.009.402-.18.566-.59.566C16.232 22 13.11 22 9.988 22ZM13.16 5.393c-.113.038-.195.06-.273.088a5.913 5.913 0 0 1-1.604.367c-.883.065-1.644-.233-2.334-.746a3.952 3.952 0 0 0-.64-.398c-.512-.237-1.183-.176-1.464.55a3.87 3.87 0 0 0-.27 1.344c-.011.853-.007 1.707-.003 2.564.011 1.331.933 2.487 2.244 2.843.503.138 1.019.107 1.53.107 1.721 0 3.071-1.32 3.075-3 0-.777.008-1.557-.004-2.334a5.753 5.753 0 0 0-.085-.853c-.032-.176-.11-.349-.172-.532ZM8.473 16.777c-.269.038-.456-.092-.605-.299a1.823 1.823 0 0 0-.113-.13l-1.732-1.993c-.051.007-.141.019-.227.034-.734.126-1.48.21-2.201.394-1.483.371-2.373 1.32-2.517 2.832-.086.88-.051 1.768-.07 2.652v.019c.05.528.323.773.87.773 1.931 0 3.864.003 5.795 0 .535 0 .418.1.484-.44.11-.9.207-1.799.3-2.698.032-.379.126-.75.016-1.144Zm3.03-.004c-.013.168-.048.321-.032.467.125 1.201.265 2.407.39 3.608.02.176.086.203.242.203 2.01-.004 4.02 0 6.03-.004.535 0 .831-.256.851-.784.035-.903.078-1.81-.059-2.71-.12-.78-.398-1.488-1.022-2.028a3.644 3.644 0 0 0-1.643-.792c-.68-.141-1.37-.23-2.05-.356-.202-.038-.347-.023-.42.188-.012.027-.04.05-.063.073-.531.608-1.066 1.216-1.593 1.833-.164.195-.335.344-.632.302Zm3.086-10.688c0-.467.024-.93-.008-1.389-.03-.52-.401-.811-.827-1.06a10.759 10.759 0 0 1-1.022-.658.965.965 0 0 1-.387-.987c.05-.272-.055-.429-.257-.559a1.931 1.931 0 0 0-.344-.176C10.546.831 9.348.87 8.17 1.325c-.511.199-.91.528-1.14 1.04-.05.116-.183.215-.304.272-.535.245-.98.578-1.225 1.122-.235.52-.25 1.06-.16 1.61.042.246.105.49.16.735.027.004.054.004.082.008.023-.061.054-.119.074-.18.105-.36.175-.73.312-1.079.527-1.324 1.908-1.439 2.794-.995.332.169.636.394.949.597.363.237.741.413 1.186.433.625.03 1.206-.138 1.78-.353.597-.221 1.112-.042 1.382.525.132.279.195.589.269.891.035.119.078.169.261.134Zm-5.491 14.95h1.8l-.372-3.382H9.473c-.13 1.125-.25 2.239-.375 3.383Zm2.744-8.219a6.446 6.446 0 0 1-3.7-.004c-.047.169.004.264.148.356.52.325 1.03.662 1.538 1.007.129.088.218.08.343-.004.508-.34 1.023-.678 1.538-1.003.144-.092.195-.191.133-.352Zm-1.05 2.093c.28.25.534.471.8.704l1.143-1.312-.425-.383c-.507.33-1 .655-1.518.991Zm-3.532-.608c.39.448.76.872 1.147 1.312.27-.237.523-.466.796-.707l-1.518-.992c-.148.134-.28.253-.425.387Zm7.154-7.202v1.88c.41-.066.78-.487.8-.9.023-.421-.328-.865-.8-.98Zm-8.837 0c-.472.123-.82.555-.803.976.02.41.378.823.803.907V7.099Zm4.419 9.59c.136 0 .273.003.41-.004.042-.004.117-.035.12-.061.036-.18.082-.368.067-.548-.008-.088-.14-.172-.223-.245-.117-.107-.246-.283-.37-.283-.125 0-.239.192-.375.276-.2.126-.258.287-.21.513.085.417-.02.34.401.352h.18Z" fill="currentColor"/>
</symbol></svg>